# xmcd CD database file
#
# Track frame offsets:
#	150
#	15947
#	34606
#	54607
#	72165
#	87004
#	102217
#	117019
#	130067
#	139120
#	155291
#	169891
#	183629
#	193305
#	211661
#	230365
#
# Disc length: 3257 seconds
#
# Revision: 0
# Processed by: cddbd v1.5.2PL0 Copyright (c) Steve Scherf et al.
# Submitted via: CDex 1.70beta2
#
DISCID=cd0cb710
DTITLE=Tom Jones - Smes
DYEAR=1900
DGENRE=Blues
TTITLE0=Kiss
TTITLE1=Enrique Iglesias with Tom Jones - Fire
TTITLE2=You can leave your hat on
TTITLE3=Danny Boy
TTITLE4=Daughter or Darkness
TTITLE5=Delilah
TTITLE6=Everybody was Kung Fu fighting
TTITLE7=Hooked on a feeling
TTITLE8=Not unusual
TTITLE9=Say you´ll still stay until tomorow
TTITLE10=She´s a lady
TTITLE11=Thunderball
TTITLE12=What´s new pussycat
TTITLE13=You sexy thing
TTITLE14=T.J. and Tori Amos - I wanna get back with you
TTITLE15=Green green grass of home
EXTD=
EXTT0=
EXTT1=
EXTT2=
EXTT3=
EXTT4=
EXTT5=
EXTT6=
EXTT7=
EXTT8=
EXTT9=
EXTT10=
EXTT11=
EXTT12=
EXTT13=
EXTT14=
EXTT15=
PLAYORDER=
